<svg xmlns="http://www.w3.org/2000/svg" xmlns:xlink="http://www.w3.org/1999/xlink" width="1366" zoomAndPan="magnify" viewBox="0 0 1024.5 576" height="768" preserveAspectRatio="xMidYMid meet" version="1.0"><defs><g/></defs><g fill="#ffffff" fill-opacity="1"><g transform="translate(2.44492, 331.688406)"><g><path d="M 10.375 -142.703125 L 62.4375 -142.703125 C 76.96875 -142.703125 88.726562 -138.953125 97.71875 -131.453125 C 106.71875 -123.960938 111.21875 -113.066406 111.21875 -98.765625 C 111.21875 -84.460938 106.660156 -73.242188 97.546875 -65.109375 C 88.441406 -56.984375 76.738281 -52.921875 62.4375 -52.921875 L 42.890625 -52.921875 L 42.890625 0 L 10.375 0 Z M 42.890625 -78.875 L 52.0625 -78.875 C 59.320312 -78.875 65.285156 -80.34375 69.953125 -83.28125 C 74.628906 -86.21875 76.96875 -91.035156 76.96875 -97.734375 C 76.96875 -104.535156 74.628906 -109.40625 69.953125 -112.34375 C 65.285156 -115.28125 59.320312 -116.75 52.0625 -116.75 L 42.890625 -116.75 Z M 42.890625 -78.875 "/></g></g></g><g fill="#ffffff" fill-opacity="1"><g transform="translate(101.374158, 331.688406)"><g><path d="M 18.765625 -10.546875 C 8.910156 -19.316406 3.984375 -30.5625 3.984375 -44.28125 C 3.984375 -58 9.113281 -69.269531 19.375 -78.09375 C 29.632812 -86.914062 42.316406 -91.328125 57.421875 -91.328125 C 72.296875 -91.328125 84.835938 -86.882812 95.046875 -78 C 105.253906 -69.125 110.359375 -57.882812 110.359375 -44.28125 C 110.359375 -30.675781 105.367188 -19.460938 95.390625 -10.640625 C 85.421875 -1.816406 72.765625 2.59375 57.421875 2.59375 C 41.515625 2.59375 28.628906 -1.785156 18.765625 -10.546875 Z M 42.46875 -59.328125 C 38.488281 -55.410156 36.5 -50.394531 36.5 -44.28125 C 36.5 -38.164062 38.398438 -33.175781 42.203125 -29.3125 C 46.003906 -25.457031 51.019531 -23.53125 57.25 -23.53125 C 63.25 -23.53125 68.179688 -25.488281 72.046875 -29.40625 C 75.910156 -33.320312 77.84375 -38.28125 77.84375 -44.28125 C 77.84375 -50.394531 75.851562 -55.410156 71.875 -59.328125 C 67.894531 -63.242188 63.019531 -65.203125 57.25 -65.203125 C 51.375 -65.203125 46.445312 -63.242188 42.46875 -59.328125 Z M 42.46875 -59.328125 "/></g></g></g><g fill="#ffffff" fill-opacity="1"><g transform="translate(199.438622, 331.688406)"><g><path d="M 64.859375 0 L 44.109375 0 L -3.453125 -88.734375 L 31.828125 -88.734375 L 53.453125 -40.828125 L 74.71875 -88.734375 L 95.828125 -88.734375 L 117.09375 -40.828125 L 138.71875 -88.734375 L 174 -88.734375 L 126.4375 0 L 105.6875 0 L 85.28125 -45.84375 Z M 64.859375 0 "/></g></g></g><g fill="#ffffff" fill-opacity="1"><g transform="translate(353.713383, 331.688406)"><g><path d="M 100.15625 -40.125 L 35.796875 -40.125 C 35.796875 -33.894531 37.8125 -29.28125 41.84375 -26.28125 C 45.882812 -23.289062 50.269531 -21.796875 55 -21.796875 C 59.957031 -21.796875 63.878906 -22.457031 66.765625 -23.78125 C 69.648438 -25.101562 72.9375 -27.726562 76.625 -31.65625 L 98.765625 -20.578125 C 89.535156 -5.128906 74.195312 2.59375 52.75 2.59375 C 39.375 2.59375 27.898438 -1.988281 18.328125 -11.15625 C 8.765625 -20.320312 3.984375 -31.363281 3.984375 -44.28125 C 3.984375 -57.195312 8.765625 -68.265625 18.328125 -77.484375 C 27.898438 -86.710938 39.375 -91.328125 52.75 -91.328125 C 66.820312 -91.328125 78.269531 -87.257812 87.09375 -79.125 C 95.914062 -71 100.328125 -59.382812 100.328125 -44.28125 C 100.328125 -42.207031 100.269531 -40.820312 100.15625 -40.125 Z M 36.671875 -57.078125 L 70.390625 -57.078125 C 69.703125 -61.691406 67.890625 -65.238281 64.953125 -67.71875 C 62.015625 -70.195312 58.238281 -71.4375 53.625 -71.4375 C 48.550781 -71.4375 44.515625 -70.109375 41.515625 -67.453125 C 38.515625 -64.804688 36.898438 -61.347656 36.671875 -57.078125 Z M 36.671875 -57.078125 "/></g></g></g><g fill="#ffffff" fill-opacity="1"><g transform="translate(441.74648, 331.688406)"><g><path d="M 10.375 0 L 10.375 -88.734375 L 41 -88.734375 L 41 -75.9375 L 41.34375 -75.9375 C 41.570312 -76.394531 41.945312 -76.96875 42.46875 -77.65625 C 42.988281 -78.351562 44.113281 -79.566406 45.84375 -81.296875 C 47.570312 -83.023438 49.414062 -84.582031 51.375 -85.96875 C 53.332031 -87.351562 55.867188 -88.59375 58.984375 -89.6875 C 62.097656 -90.78125 65.269531 -91.328125 68.5 -91.328125 C 71.84375 -91.328125 75.128906 -90.863281 78.359375 -89.9375 C 81.585938 -89.019531 83.953125 -88.097656 85.453125 -87.171875 L 87.875 -85.796875 L 75.0625 -59.84375 C 71.257812 -63.070312 65.957031 -64.6875 59.15625 -64.6875 C 55.46875 -64.6875 52.296875 -63.878906 49.640625 -62.265625 C 46.984375 -60.648438 45.109375 -58.6875 44.015625 -56.375 C 42.921875 -54.070312 42.144531 -52.113281 41.6875 -50.5 C 41.226562 -48.882812 41 -47.617188 41 -46.703125 L 41 0 Z M 10.375 0 "/></g></g></g><g fill="#ffffff" fill-opacity="1"><g transform="translate(511.619344, 331.688406)"><g><path d="M 48.953125 -91.328125 C 54.023438 -91.328125 59.039062 -90.75 64 -89.59375 C 68.957031 -88.445312 72.644531 -87.296875 75.0625 -86.140625 L 78.703125 -84.40625 L 68.671875 -64.34375 C 61.753906 -68.03125 55.179688 -69.875 48.953125 -69.875 C 45.492188 -69.875 43.039062 -69.5 41.59375 -68.75 C 40.15625 -68 39.4375 -66.585938 39.4375 -64.515625 C 39.4375 -64.054688 39.492188 -63.59375 39.609375 -63.125 C 39.722656 -62.664062 39.953125 -62.234375 40.296875 -61.828125 C 40.648438 -61.429688 40.96875 -61.085938 41.25 -60.796875 C 41.539062 -60.503906 42.03125 -60.1875 42.71875 -59.84375 C 43.414062 -59.5 43.960938 -59.238281 44.359375 -59.0625 C 44.765625 -58.894531 45.425781 -58.632812 46.34375 -58.28125 C 47.269531 -57.9375 47.960938 -57.675781 48.421875 -57.5 C 48.890625 -57.332031 49.671875 -57.078125 50.765625 -56.734375 C 51.859375 -56.390625 52.695312 -56.160156 53.28125 -56.046875 C 56.851562 -55.003906 59.960938 -53.847656 62.609375 -52.578125 C 65.265625 -51.316406 68.0625 -49.585938 71 -47.390625 C 73.945312 -45.203125 76.222656 -42.4375 77.828125 -39.09375 C 79.441406 -35.75 80.25 -31.941406 80.25 -27.671875 C 80.25 -7.492188 66.238281 2.59375 38.21875 2.59375 C 31.882812 2.59375 25.863281 1.613281 20.15625 -0.34375 C 14.445312 -2.300781 10.320312 -4.265625 7.78125 -6.234375 L 3.984375 -9.34375 L 16.4375 -30.265625 C 17.351562 -29.460938 18.5625 -28.507812 20.0625 -27.40625 C 21.5625 -26.3125 24.269531 -24.8125 28.1875 -22.90625 C 32.113281 -21.007812 35.519531 -20.0625 38.40625 -20.0625 C 44.738281 -20.0625 47.90625 -22.195312 47.90625 -26.46875 C 47.90625 -28.425781 47.097656 -29.953125 45.484375 -31.046875 C 43.867188 -32.140625 41.128906 -33.378906 37.265625 -34.765625 C 33.410156 -36.148438 30.382812 -37.421875 28.1875 -38.578125 C 22.65625 -41.453125 18.273438 -44.707031 15.046875 -48.34375 C 11.816406 -51.976562 10.203125 -56.789062 10.203125 -62.78125 C 10.203125 -71.78125 13.691406 -78.785156 20.671875 -83.796875 C 27.648438 -88.816406 37.078125 -91.328125 48.953125 -91.328125 Z M 48.953125 -91.328125 "/></g></g></g><g fill="#ffffff" fill-opacity="1"><g transform="translate(580.45446, 331.688406)"><g><path d="M 10.375 0 L 10.375 -88.734375 L 41 -88.734375 L 41 -79.390625 L 41.34375 -79.390625 C 49.300781 -87.347656 57.773438 -91.328125 66.765625 -91.328125 C 71.148438 -91.328125 75.503906 -90.75 79.828125 -89.59375 C 84.148438 -88.445312 88.300781 -86.660156 92.28125 -84.234375 C 96.257812 -81.816406 99.488281 -78.382812 101.96875 -73.9375 C 104.445312 -69.5 105.6875 -64.34375 105.6875 -58.46875 L 105.6875 0 L 75.0625 0 L 75.0625 -50.15625 C 75.0625 -54.769531 73.59375 -58.804688 70.65625 -62.265625 C 67.71875 -65.722656 63.882812 -67.453125 59.15625 -67.453125 C 54.539062 -67.453125 50.359375 -65.664062 46.609375 -62.09375 C 42.867188 -58.519531 41 -54.539062 41 -50.15625 L 41 0 Z M 10.375 0 "/></g></g></g><g fill="#ffffff" fill-opacity="1"><g transform="translate(678.518901, 331.688406)"><g><path d="M 82.859375 -142.703125 L 140.453125 0 L 105.515625 0 L 94.953125 -28.546875 L 40.640625 -28.546875 L 30.09375 0 L -4.84375 0 L 52.75 -142.703125 Z M 83.890625 -57.078125 L 67.984375 -98.59375 L 67.625 -98.59375 L 51.71875 -57.078125 Z M 83.890625 -57.078125 "/></g></g></g><g fill="#ffffff" fill-opacity="1"><g transform="translate(797.856772, 331.688406)"><g><path d="M 101.703125 -77.75 C 110.003906 -68.695312 114.15625 -57.597656 114.15625 -44.453125 C 114.15625 -31.304688 110.003906 -20.175781 101.703125 -11.0625 C 93.398438 -1.957031 82.847656 2.59375 70.046875 2.59375 C 58.285156 2.59375 48.601562 -1.09375 41 -8.46875 L 41 44.96875 L 10.375 44.96875 L 10.375 -88.734375 L 40.640625 -88.734375 L 40.640625 -78.703125 L 41 -78.703125 C 48.601562 -87.117188 58.285156 -91.328125 70.046875 -91.328125 C 82.847656 -91.328125 93.398438 -86.800781 101.703125 -77.75 Z M 75.671875 -29.40625 C 79.648438 -33.320312 81.640625 -38.335938 81.640625 -44.453125 C 81.640625 -50.566406 79.734375 -55.550781 75.921875 -59.40625 C 72.117188 -63.269531 67.109375 -65.203125 60.890625 -65.203125 C 54.890625 -65.203125 49.957031 -63.242188 46.09375 -59.328125 C 42.226562 -55.410156 40.296875 -50.453125 40.296875 -44.453125 C 40.296875 -38.335938 42.285156 -33.320312 46.265625 -29.40625 C 50.242188 -25.488281 55.117188 -23.53125 60.890625 -23.53125 C 66.765625 -23.53125 71.691406 -25.488281 75.671875 -29.40625 Z M 75.671875 -29.40625 "/></g></g></g><g fill="#ffffff" fill-opacity="1"><g transform="translate(899.72621, 331.688406)"><g><path d="M 101.703125 -77.75 C 110.003906 -68.695312 114.15625 -57.597656 114.15625 -44.453125 C 114.15625 -31.304688 110.003906 -20.175781 101.703125 -11.0625 C 93.398438 -1.957031 82.847656 2.59375 70.046875 2.59375 C 58.285156 2.59375 48.601562 -1.09375 41 -8.46875 L 41 44.96875 L 10.375 44.96875 L 10.375 -88.734375 L 40.640625 -88.734375 L 40.640625 -78.703125 L 41 -78.703125 C 48.601562 -87.117188 58.285156 -91.328125 70.046875 -91.328125 C 82.847656 -91.328125 93.398438 -86.800781 101.703125 -77.75 Z M 75.671875 -29.40625 C 79.648438 -33.320312 81.640625 -38.335938 81.640625 -44.453125 C 81.640625 -50.566406 79.734375 -55.550781 75.921875 -59.40625 C 72.117188 -63.269531 67.109375 -65.203125 60.890625 -65.203125 C 54.890625 -65.203125 49.957031 -63.242188 46.09375 -59.328125 C 42.226562 -55.410156 40.296875 -50.453125 40.296875 -44.453125 C 40.296875 -38.335938 42.285156 -33.320312 46.265625 -29.40625 C 50.242188 -25.488281 55.117188 -23.53125 60.890625 -23.53125 C 66.765625 -23.53125 71.691406 -25.488281 75.671875 -29.40625 Z M 75.671875 -29.40625 "/></g></g></g><g fill="#000000" fill-opacity="1"><g transform="translate(1001.601782, 331.688406)"><g/></g></g><g fill="#ffffff" fill-opacity="1"><g transform="translate(392.421571, 431.781997)"><g><path d="M 34.4375 -39 C 35.382812 -38.476562 35.859375 -37.6875 35.859375 -36.625 C 35.859375 -35.914062 35.617188 -35.265625 35.140625 -34.671875 C 34.671875 -34.046875 34.023438 -33.734375 33.203125 -33.734375 C 32.640625 -33.734375 32.101562 -33.867188 31.59375 -34.140625 C 29.144531 -35.523438 26.503906 -36.21875 23.671875 -36.21875 C 20.710938 -36.21875 18.097656 -35.566406 15.828125 -34.265625 C 13.554688 -32.960938 11.789062 -31.132812 10.53125 -28.78125 C 9.269531 -26.4375 8.640625 -23.742188 8.640625 -20.703125 C 8.640625 -17.429688 9.289062 -14.613281 10.59375 -12.25 C 11.894531 -9.882812 13.6875 -8.078125 15.96875 -6.828125 C 18.257812 -5.585938 20.828125 -4.96875 23.671875 -4.96875 C 26.585938 -4.96875 29.226562 -5.675781 31.59375 -7.09375 C 32.070312 -7.332031 32.585938 -7.453125 33.140625 -7.453125 C 34.003906 -7.453125 34.691406 -7.117188 35.203125 -6.453125 C 35.679688 -5.859375 35.921875 -5.226562 35.921875 -4.5625 C 35.921875 -4.082031 35.789062 -3.632812 35.53125 -3.21875 C 35.269531 -2.8125 34.925781 -2.488281 34.5 -2.25 C 32.957031 -1.382812 31.226562 -0.691406 29.3125 -0.171875 C 27.40625 0.335938 25.523438 0.59375 23.671875 0.59375 C 19.835938 0.59375 16.3125 -0.253906 13.09375 -1.953125 C 9.882812 -3.648438 7.320312 -6.113281 5.40625 -9.34375 C 3.5 -12.582031 2.546875 -16.367188 2.546875 -20.703125 C 2.546875 -24.691406 3.460938 -28.289062 5.296875 -31.5 C 7.128906 -34.71875 9.648438 -37.242188 12.859375 -39.078125 C 16.078125 -40.910156 19.679688 -41.828125 23.671875 -41.828125 C 27.492188 -41.828125 31.082031 -40.882812 34.4375 -39 Z M 34.4375 -39 "/></g></g></g><g fill="#ffffff" fill-opacity="1"><g transform="translate(468.759983, 431.781997)"><g><path d="M 10.296875 -2.84375 C 10.296875 -2.050781 10.019531 -1.378906 9.46875 -0.828125 C 8.914062 -0.273438 8.242188 0 7.453125 0 C 6.660156 0 6 -0.273438 5.46875 -0.828125 C 4.9375 -1.378906 4.671875 -2.050781 4.671875 -2.84375 L 4.671875 -40.953125 C 4.671875 -41.734375 4.945312 -42.398438 5.5 -42.953125 C 6.050781 -43.503906 6.722656 -43.78125 7.515625 -43.78125 C 8.304688 -43.78125 8.96875 -43.503906 9.5 -42.953125 C 10.03125 -42.398438 10.296875 -41.734375 10.296875 -40.953125 Z M 10.296875 -2.84375 "/></g></g></g><g fill="#ffffff" fill-opacity="1"><g transform="translate(522.316294, 431.781997)"><g><path d="M 27.28125 -31 C 28.101562 -31 28.78125 -30.722656 29.3125 -30.171875 C 29.851562 -29.617188 30.125 -28.953125 30.125 -28.171875 L 30.125 -12.421875 C 30.125 -8.316406 28.988281 -5.128906 26.71875 -2.859375 C 24.445312 -0.597656 21.238281 0.53125 17.09375 0.53125 C 13 0.53125 9.828125 -0.597656 7.578125 -2.859375 C 5.328125 -5.128906 4.203125 -8.316406 4.203125 -12.421875 L 4.203125 -28.171875 C 4.203125 -28.953125 4.46875 -29.617188 5 -30.171875 C 5.53125 -30.722656 6.191406 -31 6.984375 -31 C 7.804688 -31 8.484375 -30.722656 9.015625 -30.171875 C 9.554688 -29.617188 9.828125 -28.953125 9.828125 -28.171875 L 9.828125 -12.421875 C 9.828125 -7.253906 12.25 -4.671875 17.09375 -4.671875 C 19.5 -4.671875 21.332031 -5.320312 22.59375 -6.625 C 23.863281 -7.925781 24.5 -9.859375 24.5 -12.421875 L 24.5 -28.171875 C 24.5 -28.953125 24.765625 -29.617188 25.296875 -30.171875 C 25.828125 -30.722656 26.488281 -31 27.28125 -31 Z M 27.28125 -31 "/></g></g></g><g fill="#ffffff" fill-opacity="1"><g transform="translate(595.222581, 431.781997)"><g><path d="M 19.765625 -31.71875 C 22.441406 -31.71875 24.863281 -31.023438 27.03125 -29.640625 C 29.207031 -28.265625 30.914062 -26.351562 32.15625 -23.90625 C 33.40625 -21.457031 34.03125 -18.695312 34.03125 -15.625 C 34.03125 -12.539062 33.40625 -9.753906 32.15625 -7.265625 C 30.914062 -4.785156 29.207031 -2.851562 27.03125 -1.46875 C 24.863281 -0.09375 22.476562 0.59375 19.875 0.59375 C 17.832031 0.59375 15.921875 0.140625 14.140625 -0.765625 C 12.367188 -1.671875 10.929688 -2.796875 9.828125 -4.140625 L 9.828125 -2.421875 C 9.828125 -1.640625 9.554688 -0.96875 9.015625 -0.40625 C 8.484375 0.144531 7.804688 0.421875 6.984375 0.421875 C 6.191406 0.421875 5.53125 0.15625 5 -0.375 C 4.46875 -0.914062 4.203125 -1.597656 4.203125 -2.421875 L 4.203125 -40.953125 C 4.203125 -41.773438 4.457031 -42.453125 4.96875 -42.984375 C 5.476562 -43.515625 6.148438 -43.78125 6.984375 -43.78125 C 7.804688 -43.78125 8.484375 -43.503906 9.015625 -42.953125 C 9.554688 -42.398438 9.828125 -41.734375 9.828125 -40.953125 L 9.828125 -26.515625 C 10.773438 -27.929688 12.15625 -29.148438 13.96875 -30.171875 C 15.78125 -31.203125 17.710938 -31.71875 19.765625 -31.71875 Z M 19.109375 -4.609375 C 20.921875 -4.609375 22.554688 -5.09375 24.015625 -6.0625 C 25.484375 -7.03125 26.617188 -8.351562 27.421875 -10.03125 C 28.234375 -11.707031 28.640625 -13.570312 28.640625 -15.625 C 28.640625 -17.675781 28.234375 -19.53125 27.421875 -21.1875 C 26.617188 -22.84375 25.484375 -24.144531 24.015625 -25.09375 C 22.554688 -26.039062 20.921875 -26.515625 19.109375 -26.515625 C 17.253906 -26.515625 15.597656 -26.039062 14.140625 -25.09375 C 12.679688 -24.144531 11.546875 -22.847656 10.734375 -21.203125 C 9.929688 -19.566406 9.53125 -17.707031 9.53125 -15.625 C 9.53125 -13.53125 9.929688 -11.65625 10.734375 -10 C 11.546875 -8.34375 12.679688 -7.03125 14.140625 -6.0625 C 15.597656 -5.09375 17.253906 -4.609375 19.109375 -4.609375 Z M 19.109375 -4.609375 "/></g></g></g></svg>